<svg version="1.1" xmlns="http://www.w3.org/2000/svg" viewBox="0 0 956.7480554679642 444.24541043825957" width="1913.4961109359283" height="888.4908208765191">
  <!-- svg-source:excalidraw -->
  
  <defs>
    <style>
      @font-face {
        font-family: "Virgil";
        src: url("https://excalidraw.com/Virgil.woff2");
      }
      @font-face {
        font-family: "Cascadia";
        src: url("https://excalidraw.com/Cascadia.woff2");
      }
    </style>
  </defs>
  <rect x="0" y="0" width="956.7480554679642" height="444.24541043825957" fill="#ffffff"></rect><g stroke-linecap="round" transform="translate(98.41752327569935 9.999999999999986) rotate(0 101.5467930068015 65.85473841319194)"><path d="M126.64 1.98 C139.67 3.16, 153.75 9.09, 164.5 14.61 C175.25 20.12, 184.75 27.21, 191.15 35.09 C197.54 42.97, 201.9 52.98, 202.88 61.9 C203.87 70.81, 202 80.1, 197.06 88.58 C192.12 97.06, 183.12 106.34, 173.24 112.77 C163.36 119.2, 150.65 123.88, 137.77 127.15 C124.89 130.42, 109.62 132.62, 95.96 132.36 C82.3 132.11, 67.87 129.85, 55.81 125.63 C43.75 121.41, 32.32 114.05, 23.59 107.05 C14.86 100.05, 7.17 92.32, 3.43 83.62 C-0.32 74.93, -1.04 63.76, 1.12 54.89 C3.29 46.02, 8.99 37.7, 16.42 30.41 C23.84 23.11, 34.22 16.05, 45.69 11.11 C57.17 6.16, 71.04 2.22, 85.27 0.73 C99.5 -0.76, 122.92 1.59, 131.09 2.16 C139.26 2.73, 134.8 2.85, 134.27 4.13 M145.1 5.72 C157.8 8.44, 169.83 15.52, 178.91 22.62 C188 29.72, 195.96 39.91, 199.61 48.33 C203.26 56.74, 202.85 64.57, 200.8 73.11 C198.75 81.66, 194.02 91.66, 187.33 99.6 C180.64 107.54, 171.59 115.54, 160.68 120.77 C149.76 125.99, 135.32 129.31, 121.81 130.96 C108.3 132.61, 93.09 132.65, 79.62 130.68 C66.15 128.72, 52.12 124.52, 41 119.17 C29.89 113.81, 19.5 106.45, 12.92 98.54 C6.33 90.63, 2.73 80.97, 1.5 71.71 C0.27 62.45, 1.06 51.35, 5.53 42.97 C10.01 34.59, 18.72 27.52, 28.35 21.42 C37.98 15.33, 50.75 9.97, 63.3 6.39 C75.85 2.8, 90.21 -0.28, 103.65 -0.08 C117.09 0.12, 137.21 6.55, 143.93 7.57 C150.65 8.6, 144.37 5.5, 143.97 6.07" stroke="#000000" stroke-width="1" fill="none"></path></g><g stroke-linecap="round"><g transform="translate(305.9140219982444 88.33677281749368) rotate(0 127.99873186304512 15.98543900608827)"><path d="M0.92 -0.97 C43.34 4.64, 211.35 27.5, 253.8 32.94 M-0.06 1.13 C42.81 6.48, 213.48 26, 256.06 31.29" stroke="#000000" stroke-width="1" fill="none"></path></g><g transform="translate(305.9140219982444 88.33677281749368) rotate(0 127.99873186304512 15.98543900608827)"><path d="M225.23 36.71 C235.26 37.95, 240.1 34.56, 256.72 31.23 M226.2 37.28 C235.15 35.25, 246.18 32.61, 255.25 31.44" stroke="#000000" stroke-width="1" fill="none"></path></g><g transform="translate(305.9140219982444 88.33677281749368) rotate(0 127.99873186304512 15.98543900608827)"><path d="M227.65 16.33 C236.99 22.4, 241.26 23.81, 256.72 31.23 M228.62 16.9 C236.66 21.28, 246.93 25.02, 255.25 31.44" stroke="#000000" stroke-width="1" fill="none"></path></g></g><g stroke-linecap="round"><g transform="translate(252.2115085646417 139.05867800058522) rotate(0 85.54064256467365 66.64256262417081)"><path d="M1.02 0.1 C29.55 22.3, 142.89 110.46, 170.98 132.58 M0.1 -0.89 C28.57 21.58, 142.46 111.64, 170.54 134.17" stroke="#000000" stroke-width="1" fill="none"></path></g><g transform="translate(252.2115085646417 139.05867800058522) rotate(0 85.54064256467365 66.64256262417081)"><path d="M142.26 126.25 C150.29 126.33, 158.74 128.99, 170.94 133.34 M143.06 123.77 C148.42 126.45, 154.62 129.12, 170.94 134.74" stroke="#000000" stroke-width="1" fill="none"></path></g><g transform="translate(252.2115085646417 139.05867800058522) rotate(0 85.54064256467365 66.64256262417081)"><path d="M155.04 110.19 C159.36 114.95, 164.17 122.17, 170.94 133.34 M155.83 107.71 C158.43 113.76, 162 119.74, 170.94 134.74" stroke="#000000" stroke-width="1" fill="none"></path></g></g><g stroke-linecap="round"><g transform="translate(163.7391787897625 151.28654695777385) rotate(0 -65.64689294993698 65.75397850199565)"><path d="M0.59 -1.06 C-21.09 21.21, -109.08 110.48, -131.11 132.57 M-0.55 0.99 C-22.28 23, -109.9 108.82, -131.89 130.74" stroke="#000000" stroke-width="1" fill="none"></path></g><g transform="translate(163.7391787897625 151.28654695777385) rotate(0 -65.64689294993698 65.75397850199565)"><path d="M-120.81 104.19 C-121.11 109.25, -125.66 114.15, -131.53 130.81 M-119.67 103.29 C-124.05 111.37, -127.06 120.26, -132.35 130.18" stroke="#000000" stroke-width="1" fill="none"></path></g><g transform="translate(163.7391787897625 151.28654695777385) rotate(0 -65.64689294993698 65.75397850199565)"><path d="M-106.39 118.79 C-109.66 120.78, -117.32 122.54, -131.53 130.81 M-105.25 117.89 C-114.23 121.4, -121.81 125.66, -132.35 130.18" stroke="#000000" stroke-width="1" fill="none"></path></g></g><g stroke-linecap="round"><g transform="translate(85.81103486543907 77.2090326899283) rotate(0 -37.2270085024434 7.72171302079866)"><path d="M-0.55 -0.67 C-13.09 1.96, -62.61 12.18, -75.11 15.06 M1.36 1.59 C-11.31 4.42, -62.87 13.94, -75.81 16.12" stroke="#000000" stroke-width="1" fill="none"></path></g><g transform="translate(85.81103486543907 77.2090326899283) rotate(0 -37.2270085024434 7.72171302079866)"><path d="M-50.98 1.84 C-59.54 5.65, -64.99 10.84, -76.21 15.54 M-49.06 1.89 C-59.5 7.13, -70.01 12.91, -75.08 15.96" stroke="#000000" stroke-width="1" fill="none"></path></g><g transform="translate(85.81103486543907 77.2090326899283) rotate(0 -37.2270085024434 7.72171302079866)"><path d="M-47.38 22.05 C-56.93 19.56, -63.5 18.49, -76.21 15.54 M-45.46 22.09 C-57.27 19.38, -69.19 17.2, -75.08 15.96" stroke="#000000" stroke-width="1" fill="none"></path></g></g><g stroke-linecap="round" transform="translate(370.8777092646857 275.1074735997812) rotate(0 61.121679803684685 45.66267529402745)"><path d="M85.8 3.71 C95.04 5.94, 104.89 12.25, 110.95 18.32 C117.02 24.38, 121.18 32.46, 122.18 40.11 C123.17 47.75, 121.09 56.99, 116.92 64.19 C112.75 71.38, 105.43 78.94, 97.16 83.26 C88.89 87.59, 77.34 89.37, 67.29 90.13 C57.24 90.89, 45.96 90.67, 36.86 87.83 C27.75 84.98, 18.69 79.23, 12.67 73.05 C6.64 66.87, 2.05 58.27, 0.69 50.73 C-0.66 43.19, 0.52 34.86, 4.52 27.8 C8.51 20.75, 16.23 12.86, 24.67 8.4 C33.1 3.94, 43.47 1.11, 55.12 1.03 C66.78 0.96, 86.6 6.01, 94.6 7.98 C102.61 9.95, 103.57 12.38, 103.16 12.86 M82.73 2.14 C91.77 4.1, 102.18 11.85, 108.61 18.2 C115.04 24.55, 119.79 32.58, 121.29 40.24 C122.78 47.89, 121.11 57.27, 117.58 64.13 C114.06 70.99, 108.18 77.07, 100.13 81.38 C92.08 85.7, 79.65 89.05, 69.31 90.04 C58.97 91.04, 47.45 90.08, 38.1 87.37 C28.75 84.65, 19.55 79.51, 13.21 73.75 C6.87 67.99, 1.41 60.5, 0.06 52.81 C-1.29 45.13, 1.08 35.02, 5.13 27.64 C9.18 20.27, 16.27 13.22, 24.35 8.54 C32.43 3.86, 43.44 0.41, 53.58 -0.42 C63.72 -1.24, 80.35 2.63, 85.19 3.58 C90.03 4.53, 83.22 4.71, 82.63 5.29" stroke="#000000" stroke-width="1" fill="none"></path></g><g stroke-linecap="round"><g transform="translate(498.28538437581585 347.50328155662737) rotate(0 63.6921540683133 2.4650616907221377)"><path d="M-0.21 -0.25 C20.74 0.38, 105.61 3.96, 126.81 4.86 M-1.78 -1.42 C19.47 -0.09, 107.88 5.02, 129.17 6.35" stroke="#000000" stroke-width="1" fill="none"></path></g><g transform="translate(498.28538437581585 347.50328155662737) rotate(0 63.6921540683133 2.4650616907221377)"><path d="M100 13.79 C111.41 10.78, 123.14 8.25, 128.45 7.42 M99.66 15.55 C109.81 12.57, 120.46 8.22, 129.91 6.28" stroke="#000000" stroke-width="1" fill="none"></path></g><g transform="translate(498.28538437581585 347.50328155662737) rotate(0 63.6921540683133 2.4650616907221377)"><path d="M101.23 -6.69 C112.35 -1.71, 123.6 3.77, 128.45 7.42 M100.88 -4.94 C110.49 -0.85, 120.72 1.86, 129.91 6.28" stroke="#000000" stroke-width="1" fill="none"></path></g></g><g stroke-linecap="round" transform="translate(630.2163043726532 282.1375477058813) rotate(0 66.6809758988469 56.76873375884469)"><path d="M62.17 0.06 C71.81 -1.27, 84.64 1.02, 94 4.57 C103.35 8.12, 111.82 14.5, 118.3 21.37 C124.77 28.25, 130.81 37.01, 132.84 45.82 C134.87 54.62, 133.61 65.87, 130.49 74.21 C127.37 82.55, 121.42 89.66, 114.12 95.86 C106.81 102.06, 96.6 108.58, 86.67 111.39 C76.75 114.2, 64.61 114.17, 54.55 112.71 C44.49 111.25, 34.53 108.12, 26.31 102.62 C18.09 97.12, 9.62 87.71, 5.23 79.7 C0.83 71.68, -0.79 63.25, -0.07 54.54 C0.66 45.84, 4.28 35.24, 9.56 27.47 C14.85 19.71, 21.98 12.55, 31.62 7.94 C41.27 3.34, 60.76 1.09, 67.43 -0.16 C74.11 -1.4, 71.6 -0.47, 71.66 0.45 M67.69 1.5 C77.42 0.77, 88.16 1.98, 97.25 5.9 C106.34 9.81, 116.32 17.64, 122.23 24.99 C128.14 32.34, 131.66 41.49, 132.7 50 C133.74 58.52, 131.93 68.1, 128.48 76.07 C125.03 84.05, 119.54 92, 112.01 97.86 C104.48 103.72, 93.27 108.92, 83.32 111.24 C73.38 113.57, 62.3 113.89, 52.35 111.8 C42.4 109.71, 31.55 104.33, 23.64 98.71 C15.74 93.09, 8.73 86.11, 4.93 78.1 C1.14 70.08, -0.02 59.37, 0.85 50.61 C1.73 41.86, 4.34 32.71, 10.19 25.57 C16.03 18.44, 26.62 12.13, 35.92 7.8 C45.21 3.48, 61.01 0.77, 65.98 -0.4 C70.95 -1.56, 65.75 0.03, 65.76 0.83" stroke="#000000" stroke-width="1" fill="none"></path></g><g stroke-linecap="round"><g transform="translate(694.4262219121274 276.37191050668656) rotate(0 43.764365855639426 -47.8255170321668)"><path d="M-0.12 0.76 C14.42 -15.17, 72.06 -78.61, 86.77 -94.49 M-1.65 0.11 C13.33 -15.67, 74.28 -80.88, 89.17 -96.41" stroke="#000000" stroke-width="1" fill="none"></path></g><g transform="translate(694.4262219121274 276.37191050668656) rotate(0 43.764365855639426 -47.8255170321668)"><path d="M78.54 -69.84 C80.79 -74.79, 83.78 -82.69, 87.25 -95.3 M77.01 -69.29 C80.81 -78.28, 84.13 -86.79, 89.17 -95.48" stroke="#000000" stroke-width="1" fill="none"></path></g><g transform="translate(694.4262219121274 276.37191050668656) rotate(0 43.764365855639426 -47.8255170321668)"><path d="M63.62 -83.94 C69.9 -85.19, 76.79 -89.4, 87.25 -95.3 M62.09 -83.38 C70.97 -87.64, 79.26 -91.46, 89.17 -95.48" stroke="#000000" stroke-width="1" fill="none"></path></g></g><g stroke-linecap="round"><g transform="translate(772.1271822748167 368.0840794341806) rotate(0 52.47411668607015 17.722054056725057)"><path d="M0.82 0.84 C18.35 6.28, 87.93 28.25, 105.15 33.78 M-0.2 0.23 C17.16 6.37, 86.4 29.35, 104.18 35.21" stroke="#000000" stroke-width="1" fill="none"></path></g><g transform="translate(772.1271822748167 368.0840794341806) rotate(0 52.47411668607015 17.722054056725057)"><path d="M75.59 36.02 C82.82 33.88, 92.24 35.78, 103.22 35.58 M74.64 36.14 C81 36.57, 89.19 35.49, 104.28 34.39" stroke="#000000" stroke-width="1" fill="none"></path></g><g transform="translate(772.1271822748167 368.0840794341806) rotate(0 52.47411668607015 17.722054056725057)"><path d="M82.05 16.54 C87.52 20.27, 95.01 28.01, 103.22 35.58 M81.09 16.66 C85.61 22.12, 92.12 26.1, 104.28 34.39" stroke="#000000" stroke-width="1" fill="none"></path></g></g><g stroke-linecap="round" transform="translate(880.4449840110024 365.5701421614028) rotate(0 33.151535728480894 34.33763413842837)"><path d="M32.17 0.86 C44.78 12.85, 59.12 26.73, 67.64 36.56 M33.96 0.46 C41.74 8.66, 51.03 16.39, 65.35 34.42 M65.39 35.23 C57.42 42.99, 53.11 48.58, 35.45 70.13 M66.75 34.96 C53.12 47.76, 40.52 60.47, 33.02 68.2 M35.18 70.64 C22.76 59.31, 8.85 44.18, 0 33.18 M33.09 69.46 C21.84 55.06, 8.61 42.99, 0.81 35.99 M0.91 33.28 C7.33 24.27, 18.94 15.61, 35.46 1.2 M0.81 35.1 C7.5 25.78, 16.46 17.06, 33.4 0.84" stroke="#000000" stroke-width="1" fill="none"></path></g><g stroke-linecap="round" transform="translate(789.3397727494721 92.54593852459473) rotate(0 46.590717754816865 47.4983193075643)"><path d="M0.46 -1.11 C32.27 -1.59, 65.64 0.63, 93.81 0.42 M-0.32 0.97 C30.29 -1.14, 61.22 -0.83, 94.07 0 M92.71 1.59 C93.5 23.28, 93.73 49.3, 94.27 95.44 M92.49 -0.74 C93.13 35.52, 94.42 69.43, 93.2 94.34 M93.35 94.35 C69.5 95.57, 48.82 95.94, -0.97 96.96 M93.67 94.52 C69.53 95.22, 47.8 95.05, -0.34 94.63 M1.34 93.03 C0.69 74.36, -1.3 55.15, -0.01 -0.61 M-0.24 95.77 C0.78 65.9, 0.83 38.79, 0.07 -0.95" stroke="#000000" stroke-width="1" fill="none"></path></g></svg>